<?xml version="1.0" standalone="no"?>
<!DOCTYPE svg PUBLIC "-//W3C//DTD SVG 20010904//EN"
 "http://www.w3.org/TR/2001/REC-SVG-20010904/DTD/svg10.dtd">
<svg version="1.0" xmlns="http://www.w3.org/2000/svg"
 width="644.000000pt" height="644.000000pt" viewBox="0 0 644.000000 644.000000"
 preserveAspectRatio="xMidYMid meet">
<metadata>
Created by potrace 1.11, written by Peter Selinger 2001-2013
</metadata>
<g transform="translate(0.000000,644.000000) scale(0.100000,-0.100000)"
fill="#000000" stroke="none">
<path d="M2731 4707 l1 -1734 486 1 487 1 0 1730 0 1730 -487 3 -487 2 0
-1733z"/>
<path d="M2455 5865 c-5 -2 -71 -22 -145 -46 -74 -23 -139 -45 -145 -50 -5 -4
-12 -7 -15 -7 -36 -2 -355 -156 -473 -230 -64 -40 -279 -190 -287 -201 -3 -3
-25 -22 -50 -41 -66 -51 -113 -93 -225 -205 -118 -119 -140 -144 -224 -250
-34 -44 -68 -87 -74 -95 -27 -34 -147 -219 -176 -270 -109 -192 -244 -501
-267 -607 -2 -12 -9 -35 -15 -50 -6 -16 -12 -35 -14 -43 -2 -8 -8 -35 -15 -60
-7 -25 -14 -54 -16 -65 -2 -11 -8 -42 -14 -70 -19 -97 -21 -110 -26 -150 -2
-21 -7 -51 -9 -65 -27 -132 -27 -618 0 -763 3 -15 7 -44 10 -65 4 -41 10 -75
25 -142 5 -25 12 -56 14 -70 5 -24 14 -64 20 -85 2 -5 6 -23 11 -40 4 -16 14
-50 22 -75 8 -25 16 -52 18 -60 2 -8 13 -40 25 -70 33 -86 47 -122 61 -160 22
-61 135 -282 188 -369 28 -46 51 -88 51 -92 0 -4 3 -9 8 -11 11 -5 72 -95 72
-106 0 -6 3 -12 8 -14 4 -1 31 -34 60 -72 64 -81 75 -94 127 -154 82 -95 335
-338 335 -323 0 3 4 1 8 -4 24 -34 233 -183 377 -270 77 -47 309 -166 330
-169 5 -1 20 -7 31 -14 12 -6 24 -8 28 -5 3 3 6 2 6 -4 0 -6 10 -13 23 -16 12
-2 54 -17 92 -31 71 -27 256 -83 291 -89 10 -1 25 -6 32 -10 6 -5 12 -6 12 -3
0 2 28 -2 63 -10 34 -8 73 -17 87 -19 14 -2 45 -6 70 -10 25 -4 56 -8 70 -11
156 -26 681 -25 763 1 7 2 35 6 64 9 28 3 83 13 122 21 39 8 83 17 98 20 16 2
82 21 148 40 66 20 125 37 130 38 6 1 15 5 20 8 6 4 28 12 50 19 115 36 447
194 530 252 5 4 53 36 106 71 89 59 167 115 179 127 3 3 17 15 32 26 100 77
305 275 398 384 72 85 154 193 216 287 32 49 67 102 78 118 20 29 194 368 197
383 3 13 11 37 24 67 7 17 18 48 25 70 7 22 15 45 19 50 3 6 6 12 7 15 0 3 9
32 19 65 20 65 21 69 29 103 3 12 7 26 10 30 5 9 13 43 22 97 3 17 10 48 16
70 6 22 12 54 14 72 1 17 7 57 13 90 33 184 36 634 6 803 -2 14 -6 43 -9 65
-3 22 -12 76 -21 120 -9 44 -17 87 -17 95 0 8 -5 21 -11 28 -5 6 -7 12 -4 12
3 0 1 15 -4 33 -6 17 -12 41 -14 53 -8 36 -65 205 -102 304 -45 116 -183 392
-241 478 -23 35 -42 68 -42 73 0 5 -4 9 -10 9 -5 0 -10 7 -10 15 0 9 -7 18
-15 21 -8 4 -15 10 -15 15 0 13 -127 177 -203 264 -56 63 -212 220 -277 279
-71 64 -149 126 -158 126 -6 0 -12 3 -14 8 -4 10 -84 72 -92 72 -4 0 -16 9
-28 20 -12 11 -34 26 -50 32 -15 7 -28 16 -28 20 0 5 -6 8 -14 8 -8 0 -16 4
-18 8 -11 27 -449 245 -479 238 -3 0 -12 4 -20 10 -13 11 -214 80 -255 88 -10
2 -31 7 -47 11 l-27 7 2 -458 3 -458 55 -21 c113 -45 265 -124 364 -190 32
-22 66 -44 74 -50 9 -5 21 -14 27 -20 7 -5 27 -21 45 -35 164 -125 335 -312
463 -505 110 -168 238 -459 278 -635 46 -199 61 -323 62 -520 0 -106 -7 -220
-18 -280 -2 -14 -6 -41 -9 -60 -26 -181 -99 -409 -192 -594 -44 -89 -149 -266
-163 -276 -4 -3 -19 -22 -32 -42 -72 -107 -268 -307 -403 -411 -47 -37 -88
-67 -90 -67 -2 0 -34 -21 -72 -46 -54 -36 -249 -143 -274 -149 -3 -1 -18 -7
-35 -14 -103 -43 -242 -89 -325 -106 -8 -2 -15 -4 -15 -5 0 -2 -18 -6 -65 -14
-19 -3 -47 -8 -62 -11 -136 -26 -336 -34 -523 -21 -91 6 -105 8 -205 27 -30 6
-64 12 -75 14 -158 28 -505 167 -617 246 -14 11 -29 19 -32 19 -6 0 -98 61
-106 71 -3 3 -22 17 -42 30 -80 54 -258 220 -354 330 -46 54 -124 159 -124
169 0 5 -4 10 -8 10 -5 0 -15 12 -23 28 -8 15 -26 45 -41 67 -86 131 -229 477
-239 580 0 2 -5 19 -10 37 -5 18 -12 47 -14 63 -3 17 -10 55 -15 85 -22 132
-30 377 -16 510 4 35 9 82 11 103 2 22 6 51 9 65 3 15 8 39 10 53 17 103 115
409 146 459 6 8 15 26 21 40 43 102 191 341 244 394 8 8 15 17 15 20 0 30 376
386 408 386 6 0 12 3 14 8 3 8 85 65 108 75 8 4 29 16 45 26 44 29 190 101
265 132 l65 26 3 457 c2 467 3 463 -33 451z"/>
</g>
</svg>
