<?xml version="1.0" encoding="utf-8"?>
<!-- Generator: Adobe Illustrator 14.0.0, SVG Export Plug-In . SVG Version: 6.00 Build 43363)  -->
<!DOCTYPE svg PUBLIC "-//W3C//DTD SVG 1.1//EN" "http://www.w3.org/Graphics/SVG/1.1/DTD/svg11.dtd">
<svg version="1.1" xmlns="http://www.w3.org/2000/svg" xmlns:xlink="http://www.w3.org/1999/xlink" x="0px" y="0px"
	 width="1529.99px" height="260.88px" viewBox="0 0 1529.99 260.88" enable-background="new 0 0 1529.99 260.88"
	 xml:space="preserve">
<g id="Delete" display="none">
	<rect x="-226.02" y="-79.132" display="inline" fill="#41C0BE" width="1920" height="415.059"/>
</g>
<g id="Layer_1">
	<g>
		<g>
			<g id="XMLID_1_">
				<g>
					<path fill="#00796B" d="M1528.13,197.99l1.609,8.609h-26.97l-1.66-4.97c-0.399-1.21-0.75-2.61-1.07-4.28
						c-7.949,6.681-20.199,12.49-38.76,12.49c-36,0-52.109-24-52.109-47.79c0-23.04,12.27-50.5,70.75-50.5h18.38v-6.5
						c0-12.63-3.34-24.32-27.57-24.32c-21.91,0-24.51,9.71-27.28,20l-1.439,5.39h-27.2l0.88-8.07c1.14-10.39,8.48-44.3,55.31-44.3
						c45.761,0,55.36,27.17,55.36,49.95v69.97C1526.36,185.43,1527.47,194.49,1528.13,197.99z M1498.56,137.72h-19.18
						c-36.44,0-41.351,12.03-41.351,23.79c0,13.17,9.12,21.36,23.79,21.36C1491.73,182.87,1498.23,166.359,1498.56,137.72z"/>
					<path fill="#00796B" d="M1328.94,53.75c36.09,0,61.3,30.65,61.3,74.54c0,56.34-33.09,81.55-65.89,81.55
						c-14.5,0-26.43-3.56-35.67-10.62v61.41h-28.061V97.49c0-11.24,0-22.86-0.27-33.03l-0.19-7.47h27.25l0.69,6.52
						c0.13,1.26,0.229,2.66,0.31,4.21C1298.9,58.52,1312.6,53.75,1328.94,53.75z M1324.89,182.6c32.93,0,36.479-37.609,36.479-53.77
						c0-21.94-9.06-47.56-34.59-47.56c-18.12,0-38.91,5.68-38.91,49.99C1287.87,167.72,1298.59,182.6,1324.89,182.6z"/>
					<path fill="#00796B" d="M1235.97,98.03l0.91,8.09h-27.53l-1.23-5.75c-1.569-7.34-7.189-19.64-27.189-19.64
						c-15.25,0-22.98,5.09-22.98,15.14c0,6.09,0,11.34,27.66,18.05c38.21,9.22,53.101,22.939,53.101,48.939
						c0,28.101-22.351,46.98-55.62,46.98c-32.431,0-54.511-17.44-59.051-46.67l-1.31-8.4h27.89l1.42,5.44
						c3.99,15.25,14.23,22.66,31.32,22.66c26.49,0,26.49-14.25,26.49-18.931c0-8.75,0-15.67-31.17-23.18
						c-35.76-8.59-49.061-20.47-49.061-43.81c0-21.5,16.03-43.2,51.851-43.2C1218.01,53.75,1233.67,77.6,1235.97,98.03z"/>
					<path fill="#0E3E56" d="M1095.04,199.33h-12.96c-0.55-3.25-0.81-15.94-0.81-22.69c-6.76,16.47-21.88,25.931-45.38,25.931
						c-35.12,0-56.19-28.641-56.19-69.15c0-41.6,22.96-72.4,59.7-72.4c27.01,0,37.811,11.62,41.87,20.26V0.25h13.5v160.18
						C1094.77,173.39,1094.77,185.82,1095.04,199.33z M1081.8,128.56c0-34.85-8.37-54.84-42.94-54.84
						c-26.75,0-44.84,21.34-44.84,59.16c0,37,19.18,56.99,42.41,56.99C1072.08,189.87,1081.8,165.29,1081.8,128.56z"/>
					<path fill="#0E3E56" d="M953.48,111.81v87.521h-13.51v-85.36c0-24.04-9.99-39.71-33.49-39.71c-32.15,0-43.22,26.74-43.22,56.19
						v68.88H849.75V98.3c0-11.88,0-23.23-0.27-34.03h13.24c0.54,4.32,0.81,21.88,0.54,25.66c5.939-13.78,17.01-28.91,44.84-28.91
						C932.14,61.02,953.48,74.53,953.48,111.81z"/>
					<path fill="#0E3E56" d="M819.19,199.33h-12.96c-1.08-3.25-1.89-9.19-2.43-20.8c-4.601,9.989-16.48,24.04-44.301,24.04
						c-31.339,0-44.839-20.261-44.839-40.521c0-29.71,22.959-43.22,63.48-43.22c11.34,0,20.26,0,25.66,0v-13.78
						c0-13.5-4.061-31.6-34.851-31.6c-27.279,0-31.33,14.32-34.3,25.39h-13.51c1.62-14.85,10.81-37.82,48.08-37.82
						c30.8,0,48.08,12.97,48.08,42.68v69.97C817.3,185.55,818.39,195.01,819.19,199.33z M804.07,135.31v-4.859
						c-5.13,0-17.56,0-26.47,0c-29.99,0-48.63,7.83-48.63,31.06c0,17.021,12.16,28.63,31.069,28.63
						C798.67,190.14,804.07,164.479,804.07,135.31z"/>
					<path fill="#0E3E56" d="M686.82,110.46v88.87h-13.51v-87.25c0-18.1-6.48-37.82-31.61-37.82c-26.2,0-38.08,21.07-38.08,47.271
						v77.8h-13.24v-86.98c0-19.72-5.94-38.09-30.79-38.09c-26.2,0-38.9,23.23-38.9,50.78v74.29h-13.51V99.11
						c0-11.61,0-24.31-0.27-34.84h13.24c0.27,4.59,0.81,16.2,0.54,24.04c5.67-13.51,18.1-27.29,40.52-27.29
						c18.91,0,33.77,9.46,39.17,26.75c6.75-14.05,20.26-26.75,44.03-26.75C665.21,61.02,686.82,72.91,686.82,110.46z"/>
					<path fill="#0E3E56" d="M477.45,110.46v88.87h-13.5v-87.25c0-18.1-6.49-37.82-31.61-37.82c-26.2,0-38.08,21.07-38.08,47.271
						v77.8h-13.24v-86.98c0-19.72-5.94-38.09-30.79-38.09c-26.21,0-38.9,23.23-38.9,50.78v74.29h-13.51V99.11
						c0-11.61,0-24.31-0.27-34.84h13.24c0.27,4.59,0.81,16.2,0.54,24.04c5.67-13.51,18.1-27.29,40.52-27.29
						c18.91,0,33.76,9.46,39.17,26.75c6.75-14.05,20.26-26.75,44.03-26.75C455.85,61.02,477.45,72.91,477.45,110.46z"/>
					<path fill="#00796B" d="M218.91,64.05c32.5,8.22,56.15,37.9,56.15,72.05c0,40.98-33.35,74.33-74.33,74.33
						c-40.99,0-74.33-33.35-74.33-74.33c0-34.15,23.64-63.82,56.14-72.05v22.79c-20.35,7.47-34.32,26.88-34.32,49.26
						c0,28.95,23.56,52.5,52.51,52.5s52.5-23.55,52.5-52.5c0-22.38-13.97-41.8-34.32-49.26V64.05z"/>
					<rect x="188.56" y="49.93" fill="#00796B" width="24.34" height="86.41"/>
					<path fill="#0E3E56" d="M110.46,104.24H96.69c-4.06-15.66-14.32-30.52-37.28-30.52c-28.63,0-44.84,24.31-44.84,58.08
						c0,32.14,15.13,58.07,43.49,58.07c19.72,0,31.6-9.99,38.63-30.25h13.77c-6.48,23.77-22.15,42.95-52.4,42.95
						c-33.77,0-57.81-25.12-57.81-70.23c0-37.01,19.72-71.32,59.43-71.32C93.99,61.02,108.03,85.34,110.46,104.24z"/>
				</g>
				<g>
				</g>
			</g>
		</g>
	</g>
</g>
</svg>
