<?xml version="1.0" encoding="utf-8"?>
<!-- Generator: Adobe Illustrator 14.0.0, SVG Export Plug-In . SVG Version: 6.00 Build 43363)  -->
<!DOCTYPE svg PUBLIC "-//W3C//DTD SVG 1.1//EN" "http://www.w3.org/Graphics/SVG/1.1/DTD/svg11.dtd">
<svg version="1.1" id="Layer_1" xmlns="http://www.w3.org/2000/svg" xmlns:xlink="http://www.w3.org/1999/xlink" x="0px" y="0px"
	 width="1529.488px" height="260.377px" viewBox="0 0 1529.488 260.377" enable-background="new 0 0 1529.488 260.377"
	 xml:space="preserve">
<g>
	<path fill="#41C0BE" d="M218.659,63.804v22.791c20.348,7.462,34.319,26.878,34.319,49.254c0,28.95-23.554,52.505-52.505,52.505
		c-28.951,0-52.505-23.555-52.505-52.505c0-22.374,13.969-41.788,34.315-49.251V63.805c-32.498,8.224-56.14,37.898-56.14,72.043
		c0,40.985,33.344,74.33,74.33,74.33c40.986,0,74.33-33.345,74.33-74.33C274.804,101.7,251.158,72.025,218.659,63.804z"/>
	<rect x="188.306" y="49.678" fill="#41C0BE" width="24.338" height="86.413"/>
	<g>
		<g>
			<path fill="#FFFFFF" d="M512.575,72.182c3.217,0,3.223-5,0-5C509.357,67.182,509.353,72.182,512.575,72.182L512.575,72.182z"/>
		</g>
	</g>
	<path fill="#0E3E56" d="M110.208,159.372c-6.482,23.77-22.149,42.949-52.403,42.949C24.04,202.321,0,177.199,0,132.087
		c0-37.005,19.717-71.311,59.427-71.311c34.305,0,48.351,24.311,50.781,43.22H96.432C92.38,88.33,82.117,73.473,59.157,73.473
		c-28.634,0-44.84,24.312-44.84,58.075c0,32.146,15.126,58.078,43.488,58.078c19.72,0,31.606-9.994,38.627-30.254H110.208z"/>
	<path fill="#0E3E56" d="M506.931,98.865c0-11.616,0-24.312-0.27-34.846h13.236c0.27,4.592,0.812,16.207,0.54,24.041
		c5.674-13.507,18.1-27.283,40.52-27.283c18.907,0,33.765,9.454,39.167,26.742c6.752-14.046,20.26-26.742,44.029-26.742
		c20.8,0,42.41,11.886,42.41,49.431v88.871h-13.506v-87.248c0-18.098-6.484-37.818-31.605-37.818
		c-26.202,0-38.085,21.07-38.085,47.271v77.795H590.13V112.1c0-19.72-5.944-38.087-30.796-38.087
		c-26.201,0-38.897,23.229-38.897,50.784v74.282h-13.506V98.865z"/>
	<path fill="#0E3E56" d="M297.57,98.865c0-11.616,0-24.312-0.27-34.846h13.236c0.27,4.592,0.812,16.207,0.54,24.041
		c5.674-13.507,18.1-27.283,40.52-27.283c18.907,0,33.765,9.454,39.167,26.742c6.752-14.046,20.26-26.742,44.029-26.742
		c20.8,0,42.409,11.886,42.409,49.431v88.871h-13.505v-87.248c0-18.098-6.484-37.818-31.606-37.818
		c-26.202,0-38.085,21.07-38.085,47.271v77.795h-13.236V112.1c0-19.72-5.944-38.087-30.796-38.087
		c-26.202,0-38.897,23.229-38.897,50.784v74.282H297.57V98.865z"/>
	<path fill="#0E3E56" d="M817.049,173.417c0,11.886,1.083,21.34,1.893,25.661h-12.966c-1.082-3.242-1.893-9.184-2.433-20.8
		c-4.592,9.996-16.478,24.042-44.299,24.042c-31.333,0-44.839-20.26-44.839-40.52c0-29.714,22.959-43.22,63.477-43.22
		c11.346,0,20.26,0,25.661,0v-13.775c0-13.506-4.052-31.604-34.845-31.604c-27.281,0-31.334,14.316-34.306,25.392h-13.506
		c1.62-14.856,10.806-37.817,48.081-37.817c30.794,0,48.081,12.966,48.081,42.68V173.417z M803.813,130.198
		c-5.132,0-17.558,0-26.472,0c-29.983,0-48.621,7.834-48.621,31.063c0,17.018,12.156,28.634,31.063,28.634
		c38.628,0,44.029-25.662,44.029-54.835V130.198z"/>
	<path fill="#0E3E56" d="M849.498,98.055c0-11.886,0-23.232-0.27-34.036h13.235c0.54,4.322,0.813,21.88,0.54,25.66
		c5.944-13.775,17.018-28.902,44.842-28.902c24.039,0,45.379,13.506,45.379,50.783v87.519h-13.506V113.72
		c0-24.041-9.994-39.708-33.496-39.708c-32.143,0-43.219,26.742-43.219,56.185v68.881h-13.506V98.055z"/>
	<path fill="#0E3E56" d="M1094.518,0v160.181c0,12.966,0,25.392,0.271,38.897h-12.966c-0.542-3.242-0.812-15.938-0.812-22.689
		c-6.752,16.478-21.88,25.932-45.38,25.932c-35.115,0-56.185-28.634-56.185-69.15c0-41.6,22.959-72.394,59.697-72.394
		c27.012,0,37.814,11.615,41.867,20.259V0H1094.518z M993.763,132.63c0,37.005,19.18,56.995,42.409,56.995
		c35.656,0,45.379-24.582,45.379-61.317c0-34.846-8.371-54.835-42.946-54.835C1011.86,73.473,993.763,94.813,993.763,132.63z"/>
	<g>
		<path fill="#41C0BE" d="M1185.358,113.674c-27.662-6.708-27.662-11.964-27.662-18.051c0-10.049,7.729-15.145,22.976-15.145
			c20,0,25.621,12.305,27.191,19.641l1.231,5.751h27.529l-0.912-8.09c-2.3-20.425-17.953-44.278-54.497-44.278
			c-35.815,0-51.847,21.697-51.847,43.2c0,23.342,13.297,35.216,49.059,43.811c31.168,7.512,31.168,14.427,31.168,23.181
			c0,4.681,0,18.927-26.49,18.927c-17.087,0-27.331-7.412-31.319-22.66l-1.421-5.434h-27.888l1.306,8.393
			c4.547,29.229,26.622,46.677,59.052,46.677c33.271,0,55.627-18.88,55.627-46.982
			C1238.461,136.61,1223.569,122.888,1185.358,113.674z"/>
		<path fill="#41C0BE" d="M1328.688,53.502c-16.34,0-30.047,4.771-40.533,13.969c-0.078-1.549-0.181-2.952-0.313-4.213l-0.686-6.514
			h-27.254l0.196,7.467c0.268,10.168,0.268,21.791,0.268,33.031v163.135h28.056V198.97c9.242,7.064,21.17,10.626,35.674,10.626
			c32.799,0,65.893-25.219,65.893-81.558C1389.988,84.153,1364.78,53.502,1328.688,53.502z M1324.636,182.35
			c-26.297,0-37.023-14.874-37.023-51.342c0-44.308,20.797-49.99,38.916-49.99c25.532,0,34.592,25.62,34.592,47.56
			C1361.12,144.747,1357.565,182.35,1324.636,182.35z"/>
		<path fill="#41C0BE" d="M1527.875,197.739c-0.656-3.499-1.766-12.559-1.766-24.321v-69.96c0-22.789-9.604-49.955-55.358-49.955
			c-46.836,0-54.179,33.91-55.314,44.303l-0.88,8.065h27.199l1.445-5.39c2.761-10.286,5.368-20.001,27.279-20.001
			c24.23,0,27.57,11.693,27.57,24.328v6.5h-18.384c-58.479,0-70.755,27.459-70.755,50.494c0,23.79,16.115,47.795,52.115,47.795
			c18.557,0,30.809-5.813,38.76-12.493c0.314,1.666,0.669,3.074,1.069,4.275l1.657,4.976h26.975L1527.875,197.739z
			 M1461.566,182.621c-14.673,0-23.788-8.185-23.788-21.358c0-11.763,4.913-23.789,41.346-23.789h19.187
			C1497.979,166.11,1491.479,182.621,1461.566,182.621z"/>
	</g>
</g>
</svg>
